<svg width="24" height="22" viewBox="0 0 24 22" fill="none" xmlns="http://www.w3.org/2000/svg">
<path d="M12 12.913C13.521 12.913 14.753 11.703 14.753 10.211C14.753 8.72 13.521 7.51 12 7.51C10.479 7.51 9.247 8.72 9.247 10.211C9.247 11.703 10.479 12.913 12 12.913ZM14.525 5.918L18.009 0C21.54 2.005 23.923 5.727 24 10H16.979C16.904 8.255 15.941 6.754 14.525 5.918V5.918ZM14.525 14.504L18.008 20.422C16.241 21.426 14.188 22 12 22C9.812 22 7.759 21.426 5.992 20.422L9.474 14.504C10.218 14.942 11.074 15.212 12 15.212C12.926 15.212 13.782 14.943 14.525 14.504V14.504ZM7.021 10H0C0.077 5.727 2.46 2.005 5.992 0L9.475 5.919C8.058 6.754 7.096 8.255 7.021 10Z" fill="#40A9FF"/>
</svg>
