<svg width="24" height="24" viewBox="0 0 24 24" fill="none" xmlns="http://www.w3.org/2000/svg">
<path fill-rule="evenodd" clip-rule="evenodd" d="M1 15C5.075 13.879 10.51 15.505 12 21C13.985 15.061 19.953 13.949 23 15C20.533 16.524 19.503 24 12 24C4.497 24 3.513 16.529 1 15ZM9.203 2.919C9.211 1.307 10.522 0 12.136 0C13.751 0 15.062 1.307 15.07 2.919C16.47 2.12 18.257 2.602 19.065 4C19.872 5.398 19.396 7.187 18.003 8C19.396 8.813 19.872 10.602 19.065 12C18.257 13.398 16.47 13.88 15.07 13.081C15.062 14.693 13.751 16 12.136 16C10.522 16 9.211 14.693 9.203 13.081C7.803 13.88 6.015 13.398 5.208 12C4.401 10.602 4.877 8.813 6.27 8C4.877 7.187 4.401 5.398 5.208 4C6.015 2.602 7.803 2.12 9.203 2.919V2.919ZM12 5.5C13.38 5.5 14.5 6.62 14.5 8C14.5 9.38 13.38 10.5 12 10.5C10.62 10.5 9.5 9.38 9.5 8C9.5 6.62 10.62 5.5 12 5.5Z" fill="#40A9FF"/>
</svg>
