<svg width="24" height="24" viewBox="0 0 24 24" fill="none" xmlns="http://www.w3.org/2000/svg">
<g clip-path="url(#clip0)">
<path fill-rule="evenodd" clip-rule="evenodd" d="M18.3844 23.7791C18.7064 24.0071 19.1214 24.0641 19.4914 23.9241C19.8614 23.7831 20.1334 23.4671 20.2154 23.0841C21.0844 19.0001 23.1924 8.66315 23.9834 4.94815C24.0434 4.66815 23.9434 4.37715 23.7234 4.19015C23.5034 4.00315 23.1984 3.94915 22.9264 4.05015C18.7334 5.60215 5.8204 10.4471 0.542398 12.4001C0.207398 12.5241 -0.0106021 12.8461 0.000397854 13.1991C0.0123979 13.5531 0.250398 13.8601 0.593398 13.9631C2.9604 14.6711 6.0674 15.6561 6.0674 15.6561C6.0674 15.6561 7.5194 20.0411 8.2764 22.2711C8.3714 22.5511 8.5904 22.7711 8.8794 22.8471C9.1674 22.9221 9.4754 22.8431 9.6904 22.6401C10.9064 21.4921 12.7864 19.7171 12.7864 19.7171C12.7864 19.7171 16.3584 22.3361 18.3844 23.7791V23.7791ZM7.3744 15.1021L9.0534 20.6401L9.4264 17.1331C9.4264 17.1331 15.9134 11.2821 19.6114 7.94715C19.7194 7.84915 19.7344 7.68515 19.6444 7.57015C19.5554 7.45515 19.3914 7.42815 19.2684 7.50615C14.9824 10.2431 7.3744 15.1021 7.3744 15.1021Z" fill="#D4380D"/>
</g>
<defs>
<clipPath id="clip0">
<rect width="24" height="24" fill="white"/>
</clipPath>
</defs>
</svg>
